<svg width="896" height="633" viewBox="0 0 896 633" fill="none" xmlns="http://www.w3.org/2000/svg">
<g filter="url(#filter0_d)">
<path d="M464 168C396.8 6.39998 108 -8.66668 -28 3.99998V694L892 792C889.333 756 881.2 662.8 870 578C858.8 493.2 760 444 712 430C657.333 410 531.2 329.6 464 168Z" fill="#C4C4C4"/>
<path d="M464 168C396.8 6.39998 108 -8.66668 -28 3.99998V694L892 792C889.333 756 881.2 662.8 870 578C858.8 493.2 760 444 712 430C657.333 410 531.2 329.6 464 168Z" fill="url(#paint0_linear)"/>
</g>
<defs>
<filter id="filter0_d" x="-32" y="0.527527" width="928" height="799.472" filterUnits="userSpaceOnUse" color-interpolation-filters="sRGB">
<feFlood flood-opacity="0" result="BackgroundImageFix"/>
<feColorMatrix in="SourceAlpha" type="matrix" values="0 0 0 0 0 0 0 0 0 0 0 0 0 0 0 0 0 0 127 0"/>
<feOffset dy="4"/>
<feGaussianBlur stdDeviation="2"/>
<feColorMatrix type="matrix" values="0 0 0 0 0 0 0 0 0 0 0 0 0 0 0 0 0 0 0.25 0"/>
<feBlend mode="normal" in2="BackgroundImageFix" result="effect1_dropShadow"/>
<feBlend mode="normal" in="SourceGraphic" in2="effect1_dropShadow" result="shape"/>
</filter>
<linearGradient id="paint0_linear" x1="-210.988" y1="65.2152" x2="844.859" y2="196.2" gradientUnits="userSpaceOnUse">
<stop stop-color="#FF4040"/>
<stop offset="0.757717" stop-color="#FF6C6C"/>
<stop offset="1" stop-color="#FF7A7A"/>
</linearGradient>
</defs>
</svg>
