<svg width="40" height="40" viewBox="0 0 40 40" fill="none" xmlns="http://www.w3.org/2000/svg">
                <path
                  d="M4.00586 11.768L19.9999 19.764L35.9939 11.768C35.9346 10.7489 35.488 9.79098 34.7455 9.09045C34.003 8.38993 33.0207 7.99981 31.9999 8H7.99986C6.97903 7.99981 5.99675 8.38993 5.25421 9.09045C4.51168 9.79098 4.06507 10.7489 4.00586 11.768Z"
                  fill="#D35555" />
                <path
                  d="M36 16.236L20 24.236L4 16.236V28C4 29.0609 4.42143 30.0783 5.17157 30.8284C5.92172 31.5786 6.93913 32 8 32H32C33.0609 32 34.0783 31.5786 34.8284 30.8284C35.5786 30.0783 36 29.0609 36 28V16.236Z"
                  fill="#D35555" />
              </svg>