<svg width="40" height="40" viewBox="0 0 40 40" fill="none" xmlns="http://www.w3.org/2000/svg">
<path d="M34.5938 8.99219L30.4336 4.83594C30.1401 4.54119 29.7913 4.30732 29.4072 4.14778C29.0231 3.98823 28.6112 3.90615 28.1953 3.90625C27.3477 3.90625 26.5508 4.23828 25.9531 4.83594L21.4766 9.3125C21.1818 9.60596 20.9479 9.95477 20.7884 10.3389C20.6289 10.723 20.5468 11.1349 20.5469 11.5508C20.5469 12.3984 20.8789 13.1953 21.4766 13.793L24.75 17.0664C23.9838 18.7553 22.9185 20.2917 21.6055 21.6016C20.2958 22.9177 18.7595 23.9869 17.0703 24.7578L13.7969 21.4844C13.5034 21.1896 13.1546 20.9558 12.7705 20.7962C12.3864 20.6367 11.9745 20.5546 11.5586 20.5547C10.7109 20.5547 9.91407 20.8867 9.31641 21.4844L4.83594 25.957C4.54083 26.251 4.30676 26.6005 4.14721 26.9853C3.98765 27.3701 3.90577 27.7826 3.90625 28.1992C3.90625 29.0469 4.23828 29.8438 4.83594 30.4414L8.98828 34.5938C9.94141 35.5508 11.2578 36.0938 12.6094 36.0938C12.8945 36.0938 13.168 36.0703 13.4375 36.0234C18.7031 35.1562 23.9258 32.3555 28.1406 28.1445C32.3516 23.9375 35.1484 18.7188 36.0273 13.4375C36.293 11.8242 35.7578 10.1641 34.5938 8.99219Z" fill="#D35555"/>
</svg>
